<?xml version="1.0" encoding="UTF-8" standalone="no"?>
<!-- Created with Inkscape (http://www.inkscape.org/) -->

<svg
   xmlns:osb="http://www.openswatchbook.org/uri/2009/osb"
   xmlns:dc="http://purl.org/dc/elements/1.1/"
   xmlns:cc="http://creativecommons.org/ns#"
   xmlns:rdf="http://www.w3.org/1999/02/22-rdf-syntax-ns#"
   xmlns:svg="http://www.w3.org/2000/svg"
   xmlns="http://www.w3.org/2000/svg"
   xmlns:xlink="http://www.w3.org/1999/xlink"
   xmlns:sodipodi="http://sodipodi.sourceforge.net/DTD/sodipodi-0.dtd"
   xmlns:inkscape="http://www.inkscape.org/namespaces/inkscape"
   width="124.04038mm"
   height="119.77037mm"
   viewBox="0 0 124.04038 119.77037"
   version="1.1"
   id="svg8"
   inkscape:version="0.92.3 (3ce5693, 2018-03-11)"
   sodipodi:docname="neuralNinjaLogo.svg"
   inkscape:export-filename="/home/nvidia/Desktop/inkscape/neuralNinjaLogo.png"
   inkscape:export-xdpi="96"
   inkscape:export-ydpi="96">
  <defs
     id="defs2">
    <linearGradient
       id="linearGradient4908"
       osb:paint="solid">
      <stop
         style="stop-color:#000000;stop-opacity:1;"
         offset="0"
         id="stop4906" />
    </linearGradient>
  </defs>
  <sodipodi:namedview
     id="base"
     pagecolor="#ffffff"
     bordercolor="#666666"
     borderopacity="1.0"
     inkscape:pageopacity="0.0"
     inkscape:pageshadow="2"
     inkscape:zoom="1.782093"
     inkscape:cx="33.57673"
     inkscape:cy="412.3135"
     inkscape:document-units="mm"
     inkscape:current-layer="layer1"
     showgrid="false"
     inkscape:window-width="1855"
     inkscape:window-height="1176"
     inkscape:window-x="65"
     inkscape:window-y="24"
     inkscape:window-maximized="1"
     showguides="false"
     fit-margin-top="0"
     fit-margin-left="0"
     fit-margin-right="0"
     fit-margin-bottom="0" />
  <metadata
     id="metadata5">
    <rdf:RDF>
      <cc:Work
         rdf:about="">
        <dc:format>image/svg+xml</dc:format>
        <dc:type
           rdf:resource="http://purl.org/dc/dcmitype/StillImage" />
        <dc:title />
      </cc:Work>
    </rdf:RDF>
  </metadata>
  <g
     inkscape:label="Layer 1"
     inkscape:groupmode="layer"
     id="layer1"
     transform="translate(-50.560267,-80.436012)">
    <path
       style="fill:#000000;fill-opacity:1;stroke:#030000;stroke-width:0.54505974;stroke-opacity:1"
       d="m 127.66562,81.553234 c -10.40736,2.69072 -19.02071,10.52049 -21.96693,19.968526 -1.52068,4.87664 -5.645,8.60329 -12.138637,10.96832 -14.405593,5.24658 -32.09602,-0.75081 -35.150202,-11.9166 -0.415616,-1.519486 -0.828106,-2.046076 -1.503649,-1.919596 -1.340019,0.25088 -3.799455,5.080766 -5.062196,9.941136 -4.36208,16.79013 5.808641,33.95155 22.336603,37.68935 3.61417,0.81737 5.621736,2.07864 7.742738,4.86455 10.636683,13.97095 5.354079,38.53741 -8.918195,41.47364 -2.4146,0.49674 -2.022442,1.71015 1.098708,3.39971 6.970255,3.7732 17.002283,4.97537 24.142725,2.89308 10.191315,-2.97201 18.093145,-10.3035 21.216955,-19.68553 2.64527,-7.94479 11.86703,-13.08224 23.48268,-13.08224 11.86699,0 21.53372,5.54259 23.94075,13.72687 0.37717,1.28248 0.99121,2.22678 1.44798,2.22678 1.06721,0 4.164,-6.19816 5.26555,-10.53887 1.24805,-4.91814 0.81973,-13.68127 -0.88585,-18.12362 -1.66401,-4.33404 -5.5089,-9.98449 -8.68141,-12.75821 -3.20997,-2.80646 -9.1685,-5.68424 -13.51069,-6.5252 -2.71049,-0.52497 -3.70792,-1.04527 -5.62865,-2.9361 -7.9133,-7.79014 -9.6114,-23.1725 -3.78296,-34.268086 2.24973,-4.28273 8.65061,-9.19686 12.00244,-9.21454 2.05745,-0.01 0.57535,-1.84306 -2.90718,-3.59389 -6.54241,-3.28914 -15.74519,-4.34637 -22.54058,-2.58948 z m 16.55998,1.86475 c 1.92024,0.60207 4.3065,1.52691 5.30283,2.05517 l 1.81152,0.96052 -2.71516,1.20798 c -8.56955,3.81269 -14.0931,16.784386 -12.21668,28.690056 1.68856,10.7137 7.05595,18.30635 13.56165,19.18418 1.41815,0.19132 4.42282,1.22124 6.67703,2.2886 14.27646,6.75982 20.50347,25.00203 13.34155,39.08429 l -1.47466,2.89955 -0.97943,-2.52467 c -3.51512,-9.06098 -18.55685,-14.68337 -31.90304,-11.92491 -9.05692,1.87193 -15.60038,6.81324 -17.59035,13.28335 -4.95909,16.12392 -24.827446,24.47893 -40.855397,17.18048 l -3.630943,-1.65339 2.321232,-0.7918 c 7.413304,-2.52875 13.316179,-13.39186 13.316179,-24.50581 0,-9.06077 -3.914509,-18.10193 -9.545037,-22.04579 -0.994985,-0.69691 -3.367834,-1.62511 -5.27299,-2.06263 -10.086897,-2.31651 -18.360527,-10.45081 -21.158927,-20.80265 -1.299608,-4.80754 -1.054054,-11.77932 0.5841,-16.58338 0.767027,-2.24935 1.733866,-4.56659 2.148519,-5.14936 0.710317,-0.99835 0.818058,-0.91688 1.863223,1.40913 3.445518,7.66793 14.483277,12.72648 26.386343,12.09271 11.871193,-0.63206 20.824658,-6.02909 23.088528,-13.91745 2.46091,-8.575046 10.50441,-15.950436 20.37993,-18.687076 4.04616,-1.12127 12.49512,-0.96163 16.55998,0.3129 z m -36.88954,41.052346 c -4.30014,1.28769 -8.635555,4.74268 -10.562995,8.41793 -1.58722,3.02653 -1.918302,8.54281 -0.725,12.07961 2.70228,8.00923 12.831905,12.83252 21.254515,10.12049 6.06385,-1.95253 9.68269,-5.70799 11.23012,-11.65419 2.07214,-7.96255 -2.82743,-16.29011 -10.9881,-18.67586 -2.86517,-0.83762 -7.89886,-0.97962 -10.20854,-0.28798 z m 12.17863,2.8862 c 7.57717,3.85033 10.1854,12.24593 6.06332,19.51722 -4.6036,8.12068 -16.58853,9.9056 -23.91034,3.56097 -3.243295,-2.8104 -4.899155,-6.35033 -4.919085,-10.51603 -0.0187,-3.90276 0.98696,-6.40864 3.808095,-9.48917 4.73851,-5.17427 12.384,-6.41356 18.95801,-3.07299 z"
       id="path3801"
       inkscape:connector-curvature="0" />
    <path
       style="fill:none;stroke:#000000;stroke-width:0.26458332px;stroke-linecap:butt;stroke-linejoin:miter;stroke-opacity:1"
       d="M 115.39303,151.09859 Z"
       id="path3891"
       inkscape:connector-curvature="0" />
    <text
       xml:space="preserve"
       style="font-style:normal;font-variant:normal;font-weight:bold;font-stretch:normal;font-size:10.58333302px;line-height:1.25;font-family:Sawasdee;-inkscape-font-specification:'Sawasdee, Bold';font-variant-ligatures:normal;font-variant-caps:normal;font-variant-numeric:normal;font-feature-settings:normal;text-align:start;letter-spacing:0px;word-spacing:0px;writing-mode:lr-tb;text-anchor:start;fill:#000000;fill-opacity:1;stroke:none;stroke-width:0.26458332"
       id="text3959"
       transform="matrix(-1.1658626,0.07372492,-0.06168798,-1.1395006,251.3477,292.14929)"><textPath
         xlink:href="#path3972"
         id="textPath3980"
         style="font-style:normal;font-variant:normal;font-weight:bold;font-stretch:normal;font-size:10.06435204px;font-family:Sawasdee;-inkscape-font-specification:'Sawasdee, Bold';font-variant-ligatures:normal;font-variant-caps:normal;font-variant-numeric:normal;font-feature-settings:normal;text-align:start;writing-mode:lr-tb;text-anchor:start;fill:#000000;fill-opacity:1">wave! by neural ninja</textPath></text>
    <ellipse
       style="fill:#000000;stroke-width:0.24446815"
       id="path3972"
       cx="112.21008"
       cy="140.26291"
       rx="18.007946"
       ry="16.507284" />
    <ellipse
       ry="14.511824"
       rx="15.83108"
       cy="140.45496"
       cx="112.24004"
       id="ellipse3978"
       style="fill:#ffffff;fill-opacity:1;stroke-width:0.21491595" />
    <path
       inkscape:connector-curvature="0"
       id="path3983"
       d="m 115.39303,151.62776 c -1.73821,0.44452 -3.32254,0.43646 -4.62447,-0.0236 -0.66598,-0.2353 -1.48806,-0.73495 -4.34242,-2.63926 -1.93651,-1.29197 -3.60848,-2.44104 -3.71549,-2.5535 -0.93806,-0.98588 -0.32624,-2.56706 1.01005,-2.61039 0.55986,-0.0181 0.93892,0.14699 2.42624,1.05706 l 1.15698,0.70795 -2.10583,-5.14909 c -2.24398,-5.48692 -2.20383,-5.3603 -1.88281,-5.93821 0.36449,-0.65615 1.23412,-0.85065 1.84114,-0.4118 0.27208,0.19671 0.39101,0.44509 1.65326,3.45292 1.43003,3.40768 1.45984,3.4601 1.86931,3.28832 0.41493,-0.17408 0.41103,-0.18671 -1.35871,-4.40509 -1.85634,-4.42482 -1.84448,-4.38272 -1.40736,-4.98726 0.42294,-0.58495 1.28473,-0.69155 1.84708,-0.22848 0.28187,0.23212 0.43069,0.55069 1.97503,4.22813 0.91851,2.18744 1.72847,4.01773 1.79974,4.06738 0.0736,0.0513 0.23955,0.0286 0.38415,-0.0524 l 0.25457,-0.14268 -1.52494,-3.76447 c -1.41779,-3.5 -1.52023,-3.78784 -1.45804,-4.09715 0.18476,-0.91892 1.37647,-1.39718 2.0592,-0.82641 0.22424,0.18747 0.48759,0.76087 1.88395,4.10198 0.8929,2.13619 1.69311,3.97726 1.77847,4.09116 0.18085,0.24132 0.60116,0.21871 0.73591,-0.0396 0.0757,-0.14515 -0.0934,-0.60816 -1.09077,-2.98543 -1.27971,-3.05035 -1.30354,-3.14312 -0.96427,-3.75389 0.11577,-0.20838 0.29815,-0.35217 0.61573,-0.4854 0.38484,-0.16145 0.52161,-0.16406 0.92943,-0.0177 l 0.2005,0.17644 2.80652,5.95259 c 3.10625,6.5883 2.85794,6.7406 2.76128,8.32894 -0.0967,1.58824 -0.81637,2.92804 -2.13898,3.98194 -0.60019,0.47825 -2.62837,1.4862 -3.37444,1.677 z"
       style="fill:#000000;fill-opacity:1;stroke:#000700;stroke-width:0.5;stroke-miterlimit:4;stroke-dasharray:none;stroke-opacity:1"
       sodipodi:nodetypes="ccccccccccccccccccccccccccccccscccc" />
    <path
       style="fill:#000000;stroke-width:0.26458332"
       id="path3997"
       d="m 117.49462,129.59008 c 0.37497,-0.0485 0.7529,-0.0654 1.13037,-0.0809 0.20722,0.005 0.41703,-0.028 0.6242,-0.0152 0.0583,0.004 0.18471,0.0282 0.24373,0.039 0.24077,0.0523 0.45561,0.169 0.6564,0.30779 0.22576,0.17229 0.43493,0.36419 0.63617,0.5642 0.16001,0.15091 0.29754,0.32046 0.41802,0.50365 0.0606,0.0755 0.10153,0.16163 0.13994,0.24955 0,0 -0.77127,0.4326 -0.77127,0.4326 v 0 c -0.0341,-0.0841 -0.0713,-0.16545 -0.12969,-0.23636 -0.11865,-0.17661 -0.24989,-0.3437 -0.40461,-0.49085 -0.19805,-0.19584 -0.40205,-0.38627 -0.62833,-0.54963 -0.19566,-0.12828 -0.40433,-0.23428 -0.63702,-0.2758 -0.28096,-0.044 -0.56452,-0.0223 -0.8478,-0.0158 -0.37992,0.0154 -0.76188,0.0321 -1.13635,0.10251 0,0 0.70624,-0.53472 0.70624,-0.53472 z"
       inkscape:connector-curvature="0" />
    <path
       style="fill:#000000;stroke-width:0.26458332"
       id="path3999"
       d="m 118.81379,132.17578 c 0.21986,0.11844 0.41637,0.27199 0.60867,0.42993 0.15307,0.16424 0.32351,0.3137 0.44737,0.5021 0.0621,0.11539 0.0341,0.0574 0.0846,0.17384 0,0 -0.77054,0.43226 -0.77054,0.43226 v 0 c -0.0442,-0.10753 -0.0192,-0.0541 -0.0754,-0.16006 -0.12091,-0.17907 -0.28047,-0.32737 -0.43009,-0.48216 -0.19064,-0.15681 -0.38874,-0.30386 -0.60987,-0.41564 0,0 0.74524,-0.48027 0.74524,-0.48027 z"
       inkscape:connector-curvature="0" />
    <path
       style="fill:#000000;stroke-width:0.26458332"
       id="path4001"
       d="m 99.720553,138.53264 c -0.0176,0.35062 -0.10437,0.68541 -0.20765,1.01894 -0.115736,0.34917 -0.214034,0.70069 -0.286506,1.06124 -0.06543,0.32425 -0.08548,0.65456 -0.09735,0.98433 -0.0045,0.22763 -0.0097,0.45532 0.0011,0.68279 0,0 -0.780167,0.40302 -0.780167,0.40302 v 0 c -0.01474,-0.23024 -0.0056,-0.46108 -0.0011,-0.69163 0.01058,-0.33422 0.03048,-0.66896 0.09301,-0.99813 0.03516,-0.1763 0.06649,-0.35388 0.115604,-0.52703 0.03261,-0.11493 0.08047,-0.24406 0.115697,-0.35788 0.01908,-0.0617 0.03592,-0.12399 0.05387,-0.18599 0.05795,-0.18198 0.127649,-0.36931 0.161232,-0.55788 0.02551,-0.14323 0.02389,-0.29274 0.04007,-0.43717 0,0 0.79215,-0.39461 0.79215,-0.39461 z"
       inkscape:connector-curvature="0" />
    <path
       style="fill:#000000;stroke-width:0.26458332"
       id="path4003"
       d="m 101.14383,139.72787 c -0.0825,0.21514 -0.14863,0.43472 -0.19034,0.66128 -0.0402,0.18304 -0.0188,0.36438 0.0135,0.54625 0.0494,0.20053 0.0949,0.40189 0.14375,0.60254 0.0442,0.15576 0.12218,0.29589 0.14727,0.45665 0,0 -0.78429,0.41074 -0.78429,0.41074 v 0 c -0.01,-0.16014 -0.097,-0.29513 -0.13747,-0.44858 -0.0516,-0.20181 -0.0954,-0.40532 -0.14779,-0.60693 -0.0352,-0.19047 -0.0687,-0.38132 -0.0277,-0.57431 0.04,-0.22857 0.10069,-0.45145 0.18263,-0.66876 0,0 0.80046,-0.37888 0.80046,-0.37888 z"
       inkscape:connector-curvature="0" />
    <path
       style="fill:#5f9ea0;fill-opacity:0.62827226;stroke:none;stroke-width:1.05573404;stroke-miterlimit:4;stroke-dasharray:none;stroke-opacity:1"
       d="m 324.7536,747.91822 c -12.05961,-1.49644 -22.59132,-4.59105 -35.46371,-10.42053 l -7.6813,-3.47861 3.55575,-1.27267 c 1.95565,-0.69996 5.60524,-2.29367 8.11018,-3.54156 21.79322,-10.85678 39.52756,-41.18779 44.08187,-75.39312 1.63144,-12.25305 0.80944,-29.77003 -2.00627,-42.75394 -5.27932,-24.34412 -18.7417,-47.31759 -33.50509,-57.1762 -4.21729,-2.8162 -12.78662,-6.15123 -21.67859,-8.43692 -19.80458,-5.09079 -36.04527,-14.57619 -50.39974,-29.43606 -8.80297,-9.11291 -14.66224,-17.51905 -20.08322,-28.81286 -8.42551,-17.5533 -11.46892,-33.70038 -10.07404,-53.4486 1.14498,-16.21016 4.46629,-29.06802 11.17786,-43.27307 2.78454,-5.89349 2.76991,-5.89824 6.92017,2.25136 6.00293,11.78757 12.98267,19.41754 25.04671,27.38006 12.87739,8.49934 29.40529,14.47756 47.92121,17.33329 8.9429,1.37928 31.0101,1.36422 40.50279,-0.0276 25.16475,-3.68975 45.07738,-12.44644 59.04346,-25.96466 8.58697,-8.31161 12.646,-14.88317 16.69876,-27.03523 4.88327,-14.64231 11.81493,-26.07445 22.56163,-37.21008 10.4002,-10.77657 19.74542,-17.52921 33.36358,-24.10772 8.55666,-4.13346 17.14482,-7.23819 23.91917,-8.6471 2.30447,-0.47927 8.6315,-1.17275 14.06008,-1.54107 10.79656,-0.73253 24.35995,-0.13529 34.54327,1.52105 6.66299,1.08375 20.22928,5.57737 27.89888,9.24105 l 5.85143,2.79517 -5.99822,2.73222 c -11.88373,5.41311 -21.59819,13.51099 -29.56312,24.64353 -4.81473,6.72951 -11.47388,20.0991 -14.35409,28.81873 -7.46918,22.61238 -8.15401,47.57072 -1.96185,71.49871 4.80014,18.54888 13.31237,34.98191 23.41042,45.19428 7.67396,7.76083 15.48927,12.127 24.90365,13.91287 17.37311,3.29562 36.25252,12.65741 49.9805,24.78397 21.11076,18.64812 34.52196,46.22435 36.53022,75.11376 1.19531,17.19491 -1.54515,33.68364 -8.14628,49.01449 -2.59535,6.02756 -6.37726,13.39744 -6.87841,13.40408 -0.15519,0.002 -0.87959,-1.56749 -1.60976,-3.48788 -6.07349,-15.97357 -17.77464,-27.99236 -36.5218,-37.51321 -34.16243,-17.3496 -79.87805,-18.05847 -114.1455,-1.76995 -9.54745,4.53822 -16.82331,9.5885 -23.75421,16.48809 -8.64148,8.60245 -12.47492,14.80265 -16.67905,26.97672 -4.06064,11.75854 -8.56026,20.20477 -15.65286,29.38196 -23.51212,30.42259 -64.62082,47.1404 -103.92448,42.2633 z m 98.56345,-117.34726 c 1.02946,-1.02946 1.08527,-1.60136 0.29958,-3.06945 -0.65544,-1.22471 -3.27561,-1.47248 -4.33789,-0.4102 -1.47885,1.47885 -0.0764,4.35754 2.12291,4.35754 0.57063,0 1.43256,-0.39505 1.9154,-0.87789 z m -12.66941,-9.31791 c 0.0769,-1.61298 0.87773,-6.44752 1.77958,-10.74343 0.90185,-4.29591 1.59311,-7.8422 1.53613,-7.88065 -0.057,-0.0384 -0.90658,-0.22262 -1.88801,-0.40927 -2.05957,-0.39169 -1.8978,-0.71236 -3.3051,6.55119 -0.75704,3.9073 -1.32156,5.38287 -2.62913,6.87212 -3.41861,3.89358 -7.0136,4.4529 -8.12521,1.26414 -0.46932,-1.34631 -0.29766,-3.15404 0.82645,-8.70295 0.78034,-3.85203 1.28107,-7.36261 1.11273,-7.8013 -0.16834,-0.43869 -1.01385,-0.79763 -1.87891,-0.79763 h -1.57282 l -1.55055,7.77787 c -1.29098,6.47592 -1.44969,8.15236 -0.94811,10.01508 1.24263,4.6148 6.31803,6.54917 10.49752,4.00089 l 1.81564,-1.10702 v 1.62121 c 0,1.72149 0.54725,2.15811 2.7933,2.22861 1.30103,0.0408 1.40622,-0.15693 1.53649,-2.88886 z m 12.98865,-7.96062 v -10.89386 h -1.95531 -1.95531 v 10.01017 c 0,5.5056 -0.15259,10.40784 -0.3391,10.89386 -0.27529,0.7174 0.0926,0.88368 1.95531,0.88368 h 2.29441 z m -42.56984,9.6648 c 0.36872,-0.36872 0.67039,-1.19832 0.67039,-1.84358 0,-0.64525 -0.30167,-1.47486 -0.67039,-1.84357 -0.36871,-0.36872 -1.19832,-0.67039 -1.84357,-0.67039 -0.64525,0 -1.47486,0.30167 -1.84358,0.67039 -0.36871,0.36871 -0.67039,1.19832 -0.67039,1.84357 0,0.64526 0.30168,1.47486 0.67039,1.84358 0.36872,0.36871 1.19833,0.67039 1.84358,0.67039 0.64525,0 1.47486,-0.30168 1.84357,-0.67039 z m 63.0188,-2.37253 2.38034,-2.48426 0.36516,1.66259 c 0.34448,1.5684 0.48113,1.64164 2.41217,1.29283 2.58123,-0.46626 2.55182,-0.43231 1.7204,-1.98583 -0.38305,-0.71574 -1.50359,-5.39889 -2.49009,-10.40701 -0.9865,-5.00813 -1.8876,-9.1908 -2.00244,-9.29483 -0.52815,-0.47842 -3.88233,0.43934 -3.66842,1.00374 0.13133,0.3465 0.68034,3.08906 1.22002,6.09459 0.91505,5.09592 0.91936,5.62664 0.064,7.86642 -1.24021,3.24746 -2.81526,4.82541 -4.81651,4.82541 -2.388,0 -3.17743,-1.62184 -4.78098,-9.82225 -0.77118,-3.94378 -1.49935,-7.26771 -1.61815,-7.38651 -0.36058,-0.36058 -3.64785,0.50705 -3.64785,0.9628 0,1.60164 3.0712,15.15036 3.71986,16.41033 1.09499,2.12689 3.92904,3.74163 6.57143,3.74415 1.86453,0.002 2.54518,-0.36782 4.57108,-2.48217 z m -57.04233,-13.08041 c 2.2575,-5.31888 4.55832,-10.17208 5.11292,-10.78491 0.69057,-0.76308 1.50589,-1.04121 2.58704,-0.88253 1.73546,0.25471 2.99285,-1.20085 2.39138,-2.76826 -0.55178,-1.43791 -6.17418,-0.70585 -7.90993,1.0299 -0.75818,0.75818 -3.35318,6.01548 -5.76668,11.68287 l -4.38816,10.30436 1.47334,0.67169 c 0.81034,0.36943 1.68084,0.61451 1.93444,0.54463 0.2536,-0.0699 2.30815,-4.47888 4.56565,-9.79775 z m 98.37292,8.49879 c 0.87431,-0.57286 1.28206,-1.24115 1.07944,-1.76916 -0.17909,-0.4667 -4.11222,-6.57889 -8.74029,-13.58266 l -8.41467,-12.73412 -1.4833,0.92638 c -0.81582,0.50951 -1.58305,0.99746 -1.70495,1.08434 -0.21426,0.15269 17.37742,26.97854 17.6994,26.99012 0.0876,0.003 0.7916,-0.40855 1.56437,-0.9149 z M 371.5699,608.6243 c 0.58387,-0.37036 0.59197,-0.75726 0.0411,-1.96621 -0.63109,-1.38508 -0.873,-1.47706 -3.03288,-1.15316 -2.05803,0.30862 -2.56879,0.15387 -4.14727,-1.2565 -1.42707,-1.27508 -1.80018,-2.04647 -1.80018,-3.72171 0,-1.16229 0.14635,-2.25961 0.32523,-2.43848 0.17888,-0.17888 1.78692,0.45384 3.57343,1.40603 4.54723,2.42366 7.99783,3.13061 10.39386,2.12948 2.50691,-1.04745 3.69632,-2.89164 3.69632,-5.7312 0,-4.11056 -3.84094,-7.46046 -8.55401,-7.46046 -2.29356,0 -2.44665,-0.092 -2.21029,-1.32848 0.17969,-0.93998 -0.12437,-1.59348 -1.03975,-2.23464 -1.66593,-1.16685 -2.01255,-1.14117 -2.43194,0.18022 -0.18965,0.59751 -1.94203,3.47532 -3.89418,6.39513 -4.35553,6.51449 -4.8875,8.72396 -3.01096,12.50537 1.79676,3.62064 4.25316,5.15512 8.23491,5.14424 1.72133,-0.004 3.45679,-0.21604 3.85659,-0.46963 z m 124.01693,-13.30822 c 2.64194,-1.95692 4.02711,-4.54531 4.02711,-7.52526 0,-2.44118 -0.12498,-2.70984 -1.25698,-2.70213 -1.77526,0.0121 -2.87494,0.84357 -2.47928,1.87463 0.51275,1.33622 -0.65412,4.08187 -2.15181,5.06319 -1.53978,1.0089 -4.30223,1.1412 -5.90608,0.28285 -1.03866,-0.55587 -0.93715,-0.77694 1.66286,-3.62178 3.02726,-3.31229 4.86694,-7.27542 4.34415,-9.35837 -1.84024,-7.33208 -12.32458,-5.79944 -14.44028,2.11094 -0.58258,2.17819 -0.77429,2.38467 -1.73615,1.86989 -0.87472,-0.46813 -1.36138,-0.29549 -2.54767,0.90379 -1.41488,1.43037 -1.42836,1.50414 -0.38362,2.09898 0.59554,0.33908 3.08952,2.49317 5.54218,4.78687 2.45265,2.29369 5.23355,4.52138 6.17977,4.95042 2.37162,1.07534 7.22941,0.68547 9.1458,-0.73402 z m -57.96522,-3.84762 c 43.46474,-8.24004 66.94493,-51.00894 48.28609,-87.95257 -4.12198,-8.16134 -11.58123,-16.86101 -19.14858,-22.33285 -1.90192,-1.37525 -3.4452,-2.63223 -3.42951,-2.7933 0.0157,-0.16106 4.35227,-3.3626 9.63687,-7.11452 5.28459,-3.75193 11.2077,-7.98616 13.16246,-9.40943 l 3.55412,-2.58774 -1.76983,-1.0763 -1.76983,-1.07629 -6.70731,4.81781 c -3.68902,2.6498 -6.84882,4.67631 -7.02177,4.50336 -0.25982,-0.25983 1.46408,-11.19494 2.39079,-15.16538 0.18928,-0.81094 -0.20947,-1.38182 -1.45421,-2.08193 -1.26851,-0.71347 -1.77358,-0.78619 -1.93998,-0.27933 -0.12374,0.37691 -1.10593,5.42762 -2.18265,11.2238 -1.07671,5.79618 -2.03376,10.59376 -2.12678,10.66128 -0.093,0.0675 -1.87708,1.3258 -3.96458,2.79618 l -3.79547,2.67341 -4.39567,-2.00932 c -10.82674,-4.94903 -18.93384,-6.55955 -32.89024,-6.53382 -13.74459,0.0254 -17.52366,0.90198 -29.24497,6.784 -8.44117,4.23598 -13.50285,7.85971 -19.4536,13.92713 -8.60602,8.77473 -13.94329,18.61939 -16.31265,30.08889 -1.60602,7.77428 -1.21019,20.01932 0.87806,27.16312 1.81845,6.2208 6.16037,15.01158 9.80969,19.86094 11.22841,14.92079 30.06104,25.13658 49.75897,26.99183 4.46894,0.4209 15.27381,-0.15822 20.13058,-1.07897 z m 73.16551,-16.55552 c 0,-2.48091 0.10363,-2.68197 1.3823,-2.68197 0.96314,0 1.63868,-0.49576 2.22776,-1.63492 l 0.84545,-1.63493 -2.08809,-0.6763 c -1.14844,-0.37196 -5.44731,-2.52731 -9.55303,-4.78965 -4.10572,-2.26235 -7.68233,-4.11336 -7.94802,-4.11336 -0.5354,0 -2.46269,2.72682 -2.12081,3.00063 0.11843,0.0949 2.69004,1.52686 5.71468,3.18222 7.39612,4.04786 9.01225,6.51778 7.36295,11.25276 -1.1646,3.34345 -1.14735,3.36418 1.66285,1.99888 2.4608,-1.19555 2.51396,-1.2781 2.51396,-3.90336 z m 9.20887,-16.78811 c 0.1294,-0.38408 0.31005,-1.17995 0.40146,-1.7686 0.18311,-1.17912 0.42318,-1.09219 -8.75526,-3.17035 -6.38571,-1.44583 -8.11764,-2.66034 -8.11764,-5.69247 0,-1.92587 1.44532,-3.76754 3.53893,-4.50942 0.56372,-0.19975 4.3161,0.39732 8.3386,1.32685 7.74981,1.79082 8.20662,1.73885 8.22565,-0.93587 0.008,-1.07692 -0.6763,-1.36222 -6.55569,-2.73457 -3.61034,-0.84271 -7.63343,-1.51849 -8.94021,-1.50172 -7.04254,0.0904 -10.95787,7.76865 -6.8518,13.43692 1.78472,2.46372 2.59685,2.80574 12.02106,5.0625 5.47501,1.31107 6.39467,1.37793 6.6949,0.48673 z M 333.00226,528.62892 c 5.91944,-1.3402 10.69598,-2.62037 10.61453,-2.84482 -0.0815,-0.22446 -2.54732,-2.24702 -5.47969,-4.49458 -2.93238,-2.24756 -5.44635,-4.33534 -5.5866,-4.63951 -0.14027,-0.30421 3.12811,-1.45331 7.26438,-2.55402 l 7.51938,-2.001 -9.948,-7.08284 c -5.4714,-3.89557 -10.17495,-7.08285 -10.45234,-7.08285 -0.27738,0 -0.50434,0.48223 -0.50434,1.07162 0,0.5894 -0.13368,1.42001 -0.29707,1.8458 -0.19379,0.505 1.66557,2.19658 5.34793,4.86536 3.10474,2.25016 5.43815,4.28848 5.18534,4.5296 -0.25281,0.24112 -3.41357,1.24609 -7.02391,2.23325 -3.61033,0.98716 -6.56424,1.9571 -6.56424,2.15542 0,0.19832 2.526,2.33371 5.61333,4.74529 3.08734,2.4116 5.48186,4.51619 5.32116,4.67689 -0.1607,0.1607 -3.22642,0.99278 -6.81271,1.84907 -3.58629,0.85629 -6.73115,1.88908 -6.98858,2.29509 -0.25743,0.406 -0.4719,1.33314 -0.47661,2.0603 -0.007,1.07633 0.22512,1.27439 1.24843,1.06539 0.69134,-0.1412 6.10017,-1.35325 12.01961,-2.69346 z m 176.57967,0.59725 c 0.5277,-1.51379 0.4386,-1.7476 -0.98695,-2.58969 -2.14075,-1.26457 -3.39445,-3.57943 -3.39445,-6.26757 0,-1.7854 0.38742,-2.65911 1.88161,-4.24341 3.37929,-3.58309 3.79068,-3.10825 4.8056,5.54681 1.04188,8.88502 1.1256,9.21788 2.31839,9.21788 1.60279,0 5.03536,-1.55245 6.54394,-2.95963 1.98128,-1.8481 3.44487,-5.09854 3.44487,-7.65058 0,-8.51568 -9.75698,-13.28807 -17.67735,-8.64643 -4.61456,2.70432 -6.55361,8.75167 -4.31728,13.4644 0.9548,2.01207 4.94805,5.79224 6.11875,5.79224 0.37553,0 0.94382,-0.74881 1.26287,-1.66402 z m -4.24369,-25.84995 c 8.12869,-4.24457 10.47682,-6.51313 10.47682,-10.12179 0,-3.02182 -1.38636,-4.92027 -4.50398,-6.16769 l -2.29026,-0.91638 1.26363,-1.02322 c 1.15835,-0.93798 1.20301,-1.16954 0.53604,-2.77975 -0.40017,-0.96609 -0.8619,-1.75653 -1.02607,-1.75653 -0.16416,0 -1.10955,0.61863 -2.10086,1.37474 -0.99131,0.75611 -5.28878,3.18586 -9.54994,5.39945 -4.26116,2.21358 -7.82395,4.08056 -7.91733,4.14884 -0.0934,0.0683 0.29695,0.8916 0.86739,1.82961 l 1.03715,1.70546 5.27787,-2.85821 c 4.3327,-2.34636 5.77809,-2.8594 8.07116,-2.86487 3.79709,-0.009 6.42458,1.40817 6.42458,3.46531 0,2.2084 -2.11833,3.96949 -8.75565,7.27909 -3.12567,1.55856 -5.83138,3.07378 -6.01268,3.36715 -0.32535,0.52641 0.73028,3.41041 1.2483,3.41041 0.14691,0 3.27614,-1.57123 6.95383,-3.49162 z m -152.31902,-5.95188 c 2.7243,-1.23724 4.56112,-3.94689 5.039,-7.43345 0.30605,-2.23286 0.47795,-2.4709 1.62586,-2.25146 1.67482,0.32016 3.75272,-2.43604 2.45552,-3.25708 -0.4366,-0.27633 -1.05897,-0.50628 -1.38305,-0.51098 -0.32407,-0.004 -2.20954,-1.15889 -4.18994,-2.56487 -7.01409,-4.97963 -10.46001,-5.8779 -14.74622,-3.84396 -3.58479,1.7011 -5.73991,5.91173 -4.97734,9.7246 0.41655,2.08274 1.31043,2.60482 2.95388,1.72527 0.98386,-0.52655 1.10996,-0.96203 0.81417,-2.81181 -0.30846,-1.92896 -0.14816,-2.39062 1.35048,-3.88925 1.33058,-1.33058 2.18877,-1.70049 3.94513,-1.70049 1.23455,0 2.35917,0.18855 2.49916,0.419 0.13999,0.23044 -0.71367,2.01694 -1.89701,3.97 -3.66218,6.04426 -3.37002,10.87113 0.76693,12.67041 2.34163,1.01845 3.0237,0.98924 5.74343,-0.24593 z m 17.26428,-32.14958 c -1.39943,-6.12611 -2.64589,-11.23985 -2.7699,-11.36387 -0.37227,-0.37227 -3.05869,1.7894 -3.07764,2.47646 -0.0158,0.57125 1.76545,9.76305 2.49944,12.89829 0.26591,1.13582 -0.2536,0.97714 -5.94407,-1.81565 -3.4295,-1.68313 -6.59855,-3.06025 -7.04233,-3.06025 -0.44378,0 -1.43193,0.49167 -2.19588,1.0926 l -1.389,1.09259 11.07742,5.55141 c 6.4172,3.21595 11.14242,5.28119 11.23191,4.90911 0.085,-0.35327 -0.99052,-5.65457 -2.38995,-11.78069 z m 22.2228,1.33603 c 2.74621,-0.76263 5.90357,-3.56972 7.18307,-6.3862 1.43476,-3.15825 1.32885,-3.63608 -0.80591,-3.63608 -1.6115,0 -1.97087,0.27897 -2.81027,2.18151 -1.70203,3.85774 -5.80919,5.44001 -9.53344,3.67275 -1.77034,-0.84009 -3.59202,-2.83247 -3.03253,-3.3167 0.10171,-0.088 3.70448,-1.48714 8.00616,-3.10913 4.30168,-1.62199 7.91792,-3.02876 8.03609,-3.12614 0.60302,-0.49696 -1.47713,-3.84096 -3.42809,-5.51091 -5.42493,-4.64353 -13.82022,-2.99253 -16.66771,3.27785 -2.90722,6.4019 0.49363,13.97595 7.17929,15.98904 2.14609,0.64619 3.44549,0.63823 5.87334,-0.036 z m 61.57691,-3.81885 c 4.009,-1.8561 6.98324,-6.39614 6.98324,-10.65957 0,-7.19615 -7.21891,-12.52822 -13.65078,-10.08282 -0.78816,0.29966 -1.4324,0.36251 -1.43164,0.13966 5.6e-4,-0.22284 0.72162,-2.91913 1.6019,-5.99176 l 1.60052,-5.58659 -1.62592,-0.5067 c -0.9728,-0.30316 -1.81591,-0.30316 -2.09888,0 -0.26012,0.27868 -2.14687,6.38753 -4.19278,13.57521 -2.0459,7.18768 -4.10337,13.81021 -4.57215,14.71673 -0.99273,1.91972 -0.95928,1.98136 1.3228,2.43778 1.35866,0.27173 1.88152,0.10684 2.42607,-0.76511 0.67269,-1.07715 0.73788,-1.0595 2.11025,0.57147 2.70914,3.21964 7.34979,4.08586 11.52737,2.1517 z m -40.96577,-2.10007 c 0.5619,-0.50851 1.02164,-1.37044 1.02164,-1.9154 0,-1.29234 -1.479,-2.74661 -2.7933,-2.74661 -0.57063,0 -1.43256,0.39505 -1.9154,0.87789 -1.63855,1.63854 -0.4834,4.7087 1.77165,4.7087 0.49157,0 1.3535,-0.41606 1.91541,-0.92458 z m -2.22405,-19.09408 c -0.73727,-6.65733 -1.40632,-12.17543 -1.48678,-12.26244 -0.0805,-0.087 -1.14772,0.002 -2.37167,0.19766 l -2.22535,0.35585 1.87261,10.97553 c 2.48474,14.56321 2.1132,13.34232 3.97715,13.06875 l 1.57452,-0.23109 z"
       id="path4912"
       inkscape:connector-curvature="0"
       transform="scale(0.26458333)" />
    <path
       style="fill:#e0ffff;fill-opacity:0.76963351;stroke:none;stroke-width:1.05573404;stroke-miterlimit:4;stroke-dasharray:none;stroke-opacity:1"
       d="m 418.88768,585.28284 c -12.32489,-1.31204 -23.35849,-5.53562 -32.54531,-12.4581 -20.59795,-15.52102 -27.37734,-42.22363 -16.33714,-64.34856 7.94329,-15.91861 22.5749,-26.80889 41.61988,-30.97758 6.11755,-1.33905 19.00648,-1.34103 25.13967,-0.004 21.44637,4.67577 37.82604,18.40983 44.18426,37.04771 6.4164,18.80842 1.68008,38.2749 -12.89283,52.99016 -8.4946,8.57758 -19.47447,14.38169 -31.53411,16.66936 -4.65419,0.88289 -14.07185,1.46013 -17.63442,1.08088 z m 17.59777,-11.13791 c 5.76395,-1.70125 12.56793,-5.65081 15.85944,-9.20604 4.33182,-4.67887 5.57295,-8.13301 5.61002,-15.61295 0.0272,-5.47267 -0.10622,-6.20299 -1.989,-10.89385 -2.2833,-5.68873 -11.79516,-26.35932 -16.58133,-36.03352 -3.03909,-6.14286 -3.26098,-6.43247 -5.06035,-6.60458 -3.86827,-0.37 -6.77733,1.93346 -6.77733,5.36646 0,1.03574 1.87734,6.47348 4.22153,12.22772 2.32184,5.69937 4.09635,10.48768 3.94334,10.64069 -0.153,0.153 -0.64236,-0.56603 -1.08747,-1.59784 -0.4451,-1.03181 -3.00186,-7.02966 -5.68169,-13.32854 -6.47803,-15.22649 -7.16213,-16.52275 -9.05507,-17.15807 -3.30155,-1.10808 -7.55908,1.10661 -8.25971,4.29654 -0.21404,0.97451 0.17804,2.88519 1.08834,5.30362 2.16589,5.75424 1.65472,5.64814 -1.13254,-0.23509 -1.37555,-2.90347 -2.9062,-5.72676 -3.40143,-6.27399 -2.01373,-2.22515 -7.05086,-1.73649 -8.86984,0.86047 -1.68218,2.40165 -1.00229,5.06176 5.06127,19.80248 3.23236,7.85797 5.79469,14.53419 5.69407,14.83606 -0.10062,0.30187 -2.51508,-4.87986 -5.36545,-11.51494 -2.85038,-6.63508 -5.63292,-12.47141 -6.18344,-12.96962 -2.64508,-2.39376 -7.824,-1.24388 -9.20651,2.04413 -1.05363,2.50586 -0.50091,4.30948 6.77395,22.10459 3.5563,8.69909 6.33813,15.9444 6.18185,16.10068 -0.15627,0.15628 -1.5547,-0.465 -3.10761,-1.38063 -4.8456,-2.85707 -7.57355,-3.16213 -11.15188,-1.24706 -0.63061,0.33748 -1.57183,1.72718 -2.09161,3.0882 -1.186,3.1055 -0.47732,5.73174 2.14205,7.93807 3.12749,2.63433 25.13444,17.08438 28.13382,18.47305 1.59049,0.73637 3.97875,1.56947 5.30726,1.85134 3.27973,0.69587 11.23266,0.23023 14.98532,-0.87738 z M 373.61,538.62174 c 1.25041,-0.56972 1.42453,-0.99306 1.43608,-3.49162 0.007,-1.5638 0.50921,-4.70863 1.1155,-6.98849 0.60629,-2.27987 0.96321,-4.28435 0.79316,-4.4544 -0.17005,-0.17005 -0.95763,0.0612 -1.75017,0.51393 -1.1145,0.63661 -1.6736,1.70916 -2.46759,4.73372 -0.91968,3.50329 -1.45046,10.3352 -0.80296,10.3352 0.13917,0 0.89336,-0.29175 1.67598,-0.64834 z m 8.3505,-1.19718 c 0.87997,-0.64344 0.91961,-1.01136 0.34062,-3.16157 -0.36039,-1.33836 -0.49769,-3.27325 -0.30512,-4.29974 0.39296,-2.09462 0.35533,-2.12238 -1.64291,-1.21192 -1.7221,0.78464 -2.22841,2.46576 -1.76371,5.85609 0.51421,3.75159 1.25107,4.36736 3.37112,2.81714 z m 71.25421,-34.52435 c -0.64629,-1.2076 -3.25026,-3.29494 -4.11046,-3.29494 -0.35109,0 -1.18279,0.38135 -1.84822,0.84743 -1.2078,0.84598 -1.20587,0.85116 1.12557,3.02591 2.28279,2.12935 2.36948,2.15837 3.84482,1.28687 1.18316,-0.69891 1.39675,-1.10205 0.98829,-1.86527 z m 4.19417,-6.17791 c 0.78262,-0.35658 1.42294,-0.85865 1.42294,-1.1157 0,-0.9541 -4.00329,-4.85654 -5.91044,-5.76154 -2.52025,-1.19594 -8.58063,-0.69121 -10.45165,0.87044 -1.22289,1.0207 -1.19132,1.03157 3.05106,1.04996 3.83912,0.0166 4.48082,0.17901 6.14525,1.5549 1.02218,0.84497 2.3167,2.10195 2.87671,2.79329 1.18959,1.46855 1.04585,1.43803 2.86613,0.60865 z"
       id="path4928"
       inkscape:connector-curvature="0"
       transform="scale(0.26458333)" />
    <path
       style="fill:#5f9ea0;fill-opacity:0.83769633;stroke:none;stroke-width:1.05573404;stroke-miterlimit:4;stroke-dasharray:none;stroke-opacity:1"
       d=""
       id="path4962"
       inkscape:connector-curvature="0"
       transform="scale(0.26458333)" />
    <path
       style="fill:#5f9ea0;fill-opacity:0.62827226;stroke:none;stroke-width:0.74712372;stroke-miterlimit:4;stroke-dasharray:none;stroke-opacity:1"
       d="m 348.86984,494.14973 c -2.02581,-1.01991 -1.37654,-4.76499 1.64145,-9.46811 l 1.20631,-1.87988 1.13603,0.80892 c 2.80634,1.99829 2.19676,8.36137 -0.987,10.30283 -1.43299,0.87383 -1.69011,0.8941 -2.99679,0.23624 z"
       id="path4970"
       inkscape:connector-curvature="0"
       transform="scale(0.26458333)" />
    <path
       style="fill:#5f9ea0;fill-opacity:0.62827226;stroke:none;stroke-width:0.74712372;stroke-miterlimit:4;stroke-dasharray:none;stroke-opacity:1"
       d="m 382.07949,454.91333 c 0,-0.99165 1.16057,-3.46698 2.09447,-4.46719 2.52922,-2.70883 7.11169,-2.78135 9.49282,-0.15023 0.70146,0.7751 0.66556,0.80608 -2.17537,1.87748 -1.58873,0.59916 -4.18307,1.59704 -5.7652,2.21752 -3.31456,1.2999 -3.64672,1.34749 -3.64672,0.52242 z"
       id="path4974"
       inkscape:connector-curvature="0"
       transform="scale(0.26458333)" />
    <path
       style="fill:#5f9ea0;fill-opacity:0.62827226;stroke:none;stroke-width:0.74712372;stroke-miterlimit:4;stroke-dasharray:none;stroke-opacity:1"
       d="m 447.11505,459.72708 c -4.64871,-2.15193 -5.48577,-8.51245 -1.62794,-12.37027 3.6822,-3.68221 8.9051,-2.91598 10.95972,1.60785 2.16954,4.77685 -1.19935,10.77169 -6.27494,11.16609 -1.07191,0.0833 -2.37726,-0.0891 -3.05684,-0.40367 z"
       id="path4976"
       inkscape:connector-curvature="0"
       transform="scale(0.26458333)" />
    <path
       style="fill:#5f9ea0;fill-opacity:0.62827226;stroke:none;stroke-width:0.74712372;stroke-miterlimit:4;stroke-dasharray:none;stroke-opacity:1"
       d="m 516.1037,526.1884 c -2.5e-4,-0.0544 -0.35402,-2.84365 -0.78616,-6.19842 -0.43214,-3.35477 -0.71533,-6.16995 -0.62932,-6.25596 0.24427,-0.24427 2.69851,1.08847 3.72676,2.02377 2.84819,2.59072 2.65972,6.96128 -0.41164,9.54566 -0.9886,0.83185 -1.89798,1.25549 -1.89964,0.88495 z"
       id="path4978"
       inkscape:connector-curvature="0"
       transform="scale(0.26458333)" />
    <path
       style="fill:#5f9ea0;fill-opacity:0.62827226;stroke:none;stroke-width:0.74712372;stroke-miterlimit:4;stroke-dasharray:none;stroke-opacity:1"
       d="m 483.39336,588.6598 c -1.16093,-1.2437 -1.40472,-2.56857 -0.89444,-4.86086 0.806,-3.62073 3.22792,-6.02955 5.54963,-5.51961 2.45359,0.5389 2.61683,3.08069 0.4095,6.37625 -0.85403,1.27509 -2.15495,2.89907 -2.89094,3.60886 l -1.33815,1.29053 z"
       id="path4980"
       inkscape:connector-curvature="0"
       transform="scale(0.26458333)" />
    <path
       style="fill:#5f9ea0;fill-opacity:0.62827226;stroke:none;stroke-width:0.74712372;stroke-miterlimit:4;stroke-dasharray:none;stroke-opacity:1"
       d="m 370.99515,597.89787 c -2.23064,-0.87305 -5.9149,-2.92298 -5.91544,-3.29136 -2.2e-4,-0.15096 0.39989,-0.73863 0.88914,-1.30593 2.16474,-2.51008 7.88445,-2.03927 10.14543,0.83511 1.11676,1.41972 1.04208,2.69206 -0.21608,3.68174 -1.25906,0.99037 -2.52511,1.01114 -4.90305,0.0804 z"
       id="path4982"
       inkscape:connector-curvature="0"
       transform="scale(0.26458333)" />
  </g>
</svg>
